<svg width="159" height="39" viewBox="0 0 159 39" fill="none" xmlns="http://www.w3.org/2000/svg">
<path d="M20.9269 38.863C20.2047 36.279 19.6522 33.5671 18.6638 30.9773C17.712 28.4804 16.3108 26.1144 14.9763 23.42C9.17215 25.818 4.32648 25.0128 0 21.4522C3.99368 18.3392 9.07896 18.5455 15.0295 22.0858L20.1315 17.9352C14.9364 16.4179 13.4321 13.2903 13.8348 9.18034C13.8847 8.65134 13.3123 8.09326 13.2457 7.53228C13.1725 6.90154 13.086 6.03827 13.4853 5.67203C13.8847 5.30579 14.8765 5.40752 15.6086 5.29707C16.6237 5.14593 17.8384 5.24475 18.6039 4.7855C20.431 3.70423 22.095 3.18685 23.8423 4.739C24.9239 5.7011 25.9256 5.83189 27.4832 5.34648C29.2237 4.80585 30.0391 5.76795 29.5399 7.38113C29.3169 8.09907 28.8743 8.83446 28.9042 9.53205C29.0241 13.3979 27.8825 16.5516 22.9703 17.6881L27.2469 21.9638C29.7529 20.9755 31.7431 20.2837 33.6201 19.4146C34.6603 18.9517 35.5776 18.303 36.3125 17.5108C38.7686 14.7001 39.5141 11.433 38.975 7.98281C38.2495 3.26533 35.2841 1.03884 29.8294 0.980709C26.9307 0.951643 24.0353 0.980709 20.9768 0.980709C21.2031 0.428447 21.263 0.155223 21.3096 0.155223C25.6361 0.126156 29.9825 -0.196481 34.2524 0.184289C39.7704 0.675512 43.804 4.11988 44.7691 8.39555C45.6877 12.4649 43.4579 15.9528 37.6737 19.0833C39.5341 19.4204 41.0949 19.6326 42.6125 19.9901C47.1121 21.0511 50.5999 23.1497 51.2356 27.4951C51.8579 31.7475 49.495 34.8605 45.3782 36.84C43.358 37.8108 41.0018 38.6711 38.7487 38.7758C32.8846 39.0374 26.9773 38.863 20.9269 38.863ZM42.1732 21.9812C37.7968 25.1523 33.0677 25.725 28.1787 23.5711C24.5711 28.0793 23.0835 32.7881 22.3014 37.6276C28.1388 37.6276 33.6634 37.9183 39.1147 37.4765C41.1116 37.3137 43.561 35.7906 44.6992 34.2589C47.3251 30.7302 46.0005 25.289 42.1732 21.9812ZM14.9463 6.59053C15.0861 8.67168 14.9996 10.6598 15.4023 12.5898C15.8616 14.7931 17.5655 16.1214 20.2014 16.4993C20.847 11.7847 18.7104 7.82585 14.9463 6.59053ZM22.0451 16.4499C26.2451 15.6912 27.6163 14.0083 27.6229 10.2616C27.6229 9.00595 27.826 7.75028 27.9557 6.29405C22.8638 8.24441 22.8538 12.3253 22.0451 16.4499ZM22.0451 31.8027L26.7443 22.8706L22.0518 19.1763L22.0451 31.8027ZM16.0213 22.9026C17.5655 25.8092 18.98 28.5008 20.5641 31.4917V19.5745C20.2546 19.5919 20.1281 19.5745 20.0749 19.6065C18.7104 20.7081 17.3559 21.8155 16.0213 22.9026ZM40.9219 21.3359C36.3292 19.6152 31.986 20.2576 29.7928 22.8677C33.7865 24.4315 37.3143 23.7891 40.9219 21.3359ZM13.2723 22.7602C9.7712 20.0279 5.86072 19.6588 2.11665 21.6615C5.61112 23.7659 9.07896 24.3966 13.2723 22.7602ZM21.3895 11.9271C22.3879 10.0582 23.2931 8.32289 24.205 6.58762C21.4361 4.26231 21.0134 4.26231 18.5473 6.68063C19.4792 8.38974 20.3844 10.064 21.3895 11.9271Z" fill="white"/>
<path d="M65.7478 29.5381C63.7977 29.5845 61.8719 29.1514 60.19 28.2882C58.6282 27.45 57.3793 26.233 56.5956 24.7857C55.7224 23.1429 55.292 21.3471 55.3376 19.5363C55.2947 17.7136 55.7248 15.906 56.5956 14.2492C57.3625 12.7921 58.5811 11.5516 60.1134 10.6682C61.6892 9.79175 63.5274 9.3436 65.395 9.38053C66.5674 9.3816 67.7313 9.5525 68.8396 9.88629C69.9945 10.2363 71.0507 10.7971 71.938 11.5314C72.9302 12.3721 73.6904 13.3989 74.1612 14.534C74.7573 16.0086 75.0382 17.5662 74.9899 19.1294V20.3996H58.7822C58.8576 22.4808 59.5332 24.0755 60.809 25.1839C62.0847 26.2923 63.7299 26.8465 65.7445 26.8465C66.9608 26.8766 68.163 26.6131 69.219 26.085C70.2045 25.561 70.9496 24.753 71.3257 23.8004L74.6537 24.6142C74.1254 26.0907 73.013 27.3549 71.5154 28.1807C69.9379 29.0856 68.0153 29.5381 65.7478 29.5381ZM58.7855 17.8098H71.5054C71.5642 16.3064 70.9697 14.8392 69.8413 13.7027C68.732 12.6156 67.2488 12.0711 65.3917 12.0692C64.1929 12.0432 63.0113 12.3219 61.9904 12.8714C61.0405 13.3949 60.2601 14.1224 59.724 14.9845C59.1749 15.8537 58.8543 16.8189 58.7855 17.8098Z" fill="white"/>
<path d="M86.6155 29.5636C85.2879 29.5795 83.9729 29.3383 82.7649 28.8573C81.6015 28.4088 80.62 27.6643 79.9485 26.7211C79.277 25.7779 78.9468 24.6798 79.0008 23.5701C78.9523 22.6181 79.2143 21.6736 79.7563 20.8466C80.2538 20.1544 80.9503 19.5882 81.7765 19.2043C82.6569 18.7931 83.599 18.4917 84.5753 18.3091C85.5982 18.1153 86.6277 17.9564 87.6638 17.8324C89.0183 17.6813 90.1232 17.565 90.9686 17.4836C91.6142 17.4506 92.2467 17.3105 92.8323 17.0709C93.0292 16.9669 93.1885 16.8166 93.2921 16.6372C93.3957 16.4578 93.4393 16.2565 93.418 16.0564V15.9547C93.418 14.701 93.0286 13.7321 92.2499 13.0481C91.4711 12.364 90.2874 12.0123 88.6988 11.993C87.0614 11.993 85.7779 12.3059 84.8483 12.9318C84.0197 13.4537 83.3463 14.1414 82.8847 14.9374L79.6298 13.923C80.1227 12.8402 80.9247 11.8856 81.9595 11.15C82.9048 10.4977 83.9933 10.0218 85.1578 9.75194C86.2736 9.49026 87.4237 9.3564 88.579 9.35373C89.4113 9.36309 90.2411 9.43702 91.0584 9.57463C92.0198 9.73175 92.9409 10.039 93.7775 10.4815C94.7046 10.9887 95.4595 11.7032 95.964 12.551C96.5475 13.4753 96.8382 14.7116 96.8359 16.2599V29.1044H93.418V26.4651H93.245C92.9444 26.9695 92.5521 27.4279 92.0835 27.8225C91.4589 28.3514 90.7232 28.7699 89.9169 29.0549C88.8668 29.4168 87.7439 29.5898 86.6155 29.5636ZM87.1413 26.8721C88.3373 26.9054 89.5225 26.6649 90.5792 26.1745C91.4605 25.7522 92.1934 25.1282 92.6992 24.3694C93.1697 23.6634 93.4178 22.8611 93.418 22.0441V19.3061C93.1484 19.5151 92.8199 19.6576 92.4662 19.7188C91.9123 19.8526 91.35 19.9583 90.7822 20.0356C90.1465 20.1228 89.5308 20.2013 88.9351 20.2624L87.4874 20.4222C86.6406 20.5153 85.8059 20.6788 84.9947 20.9105C84.2871 21.1014 83.6468 21.4465 83.1343 21.9133C82.641 22.4151 82.3883 23.0637 82.4288 23.7242C82.3994 24.1835 82.5066 24.6417 82.7398 25.0543C82.9731 25.4668 83.3245 25.8196 83.76 26.0785C84.7684 26.6373 85.948 26.9141 87.1413 26.8721Z" fill="white"/>
<path d="M114.907 21.1094V9.58163H118.335V29.0794H114.907V25.7803H114.674C114.128 26.7936 113.285 27.663 112.231 28.3004C111.122 28.9883 109.726 29.3332 108.045 29.3352C107.085 29.362 106.129 29.2144 105.238 28.9017C104.348 28.589 103.541 28.118 102.869 27.5185C101.514 26.3094 100.836 24.4607 100.836 21.9726V9.58163H104.267V21.7692C104.267 23.1915 104.724 24.3251 105.638 25.17C106.087 25.5869 106.632 25.9158 107.238 26.1348C107.843 26.3537 108.495 26.4578 109.149 26.4402C110.059 26.425 110.952 26.2261 111.759 25.8588C112.669 25.4613 113.442 24.8594 113.998 24.1148C114.638 23.2146 114.954 22.1679 114.907 21.1094Z" fill="white"/>
<path d="M133.91 11.918V14.4555H129.138V25.832C129.138 26.6769 129.281 27.3096 129.567 27.7301C129.808 28.1159 130.2 28.413 130.672 28.5672C131.132 28.7081 131.616 28.7789 132.103 28.7765C132.415 28.7804 132.727 28.761 133.035 28.7183L133.614 28.6253L134.313 31.3169C133.491 31.5675 132.624 31.6876 131.753 31.6715C130.772 31.6687 129.803 31.4824 128.911 31.125C127.988 30.7624 127.194 30.1878 126.615 29.4624C125.98 28.6296 125.662 27.6429 125.706 26.643V14.4555H122.335V11.918H125.706V7.24698H129.138V11.918H133.91Z" fill="white"/>
<path d="M142.15 32.9916C141.629 32.9971 141.108 32.9572 140.596 32.8724C140.272 32.825 139.955 32.746 139.651 32.637L140.522 29.9977C141.774 30.2768 142.818 30.27 143.654 29.9774C144.491 29.6848 145.211 28.8128 145.814 27.3614L146.57 25.5331L138.313 5.92783H142.033L148.2 21.4667H148.433L154.597 5.92783H158.318L148.723 28.5764C147.463 31.5218 145.272 32.9935 142.15 32.9916Z" fill="white"/>
</svg>
